<svg xmlns="http://www.w3.org/2000/svg" width="48px" height="48px" style="shape-rendering:geometricPrecision; text-rendering:geometricPrecision; image-rendering:optimizeQuality; fill-rule:evenodd; clip-rule:evenodd" xmlns:xlink="http://www.w3.org/1999/xlink">
<g><path style="opacity:1" fill="#437926" d="M 40.5,7.5 C 38.9062,8.98305 37.2395,10.483 35.5,12C 43.0385,12.5151 43.0385,13.1818 35.5,14C 34.5,15 33.5,16 32.5,17C 45.4526,14.4774 45.786,15.6441 33.5,20.5C 30.8079,19.47 29.3079,17.47 29,14.5C 28.6667,14.8333 28.3333,15.1667 28,15.5C 27.5831,14.244 26.7498,13.5774 25.5,13.5C 29.4311,9.18198 34.4311,7.18198 40.5,7.5 Z"/></g>
<g><path style="opacity:0.983" fill="#518a2d" d="M 24.5,14.5 C 23.8407,17.4082 23.0074,17.7416 22,15.5C 21.6667,16.5 21.3333,17.5 21,18.5C 18.9431,17.0216 17.6098,15.0216 17,12.5C 16.3086,14.8912 15.3086,14.8912 14,12.5C 14.5465,15.0933 16.0465,17.2599 18.5,19C 15.8333,19.6667 15.8333,20.3333 18.5,21C 17.2068,21.49 15.8734,21.6567 14.5,21.5C 13.8826,21.3893 13.3826,21.056 13,20.5C 12.502,17.5184 12.3354,14.5184 12.5,11.5C 16.8606,11.2912 20.8606,12.2912 24.5,14.5 Z"/></g>
<g><path style="opacity:1" fill="#51872d" d="M 40.5,7.5 C 42.1667,7.5 43.8333,7.5 45.5,7.5C 45.8797,11.5709 44.8797,15.2376 42.5,18.5C 39.7847,20.123 36.7847,20.7896 33.5,20.5C 45.786,15.6441 45.4526,14.4774 32.5,17C 33.5,16 34.5,15 35.5,14C 43.0385,13.1818 43.0385,12.5151 35.5,12C 37.2395,10.483 38.9062,8.98305 40.5,7.5 Z"/></g>
<g><path style="opacity:1" fill="#376d20" d="M 25.5,13.5 C 26.7498,13.5774 27.5831,14.244 28,15.5C 28.3333,15.1667 28.6667,14.8333 29,14.5C 29.3079,17.47 30.8079,19.47 33.5,20.5C 36.7847,20.7896 39.7847,20.123 42.5,18.5C 41.8763,20.754 40.543,22.4206 38.5,23.5C 36.1432,23.3367 33.8098,23.5034 31.5,24C 39.7392,25.2056 40.0726,26.2056 32.5,27C 34.3591,28.9814 36.6924,29.9814 39.5,30C 38.5,30.3333 37.5,30.6667 36.5,31C 38.5,33 40.5,35 42.5,37C 41.0039,37.5074 39.8373,37.0074 39,35.5C 38.6667,36.1667 38.3333,36.8333 38,37.5C 36.883,36.0506 36.2163,34.3839 36,32.5C 34.3333,31.1667 32.6667,29.8333 31,28.5C 31.1346,31.2198 31.4679,33.8865 32,36.5C 29.6883,33.5424 28.1883,30.2091 27.5,26.5C 25.7298,29.1934 25.0632,32.1934 25.5,35.5C 25.0269,36.9063 24.0269,37.573 22.5,37.5C 23.6787,34.6291 23.6787,31.7957 22.5,29C 24.8329,27.7574 25.4996,26.0907 24.5,24C 26.8852,23.9451 28.2186,22.7784 28.5,20.5C 28.5466,18.9623 27.8799,17.9623 26.5,17.5C 25.8902,16.609 25.5569,15.609 25.5,14.5C 25.5,14.1667 25.5,13.8333 25.5,13.5 Z"/></g>
<g><path style="opacity:0.999" fill="#386e20" d="M 24.5,14.5 C 24.8333,14.5 25.1667,14.5 25.5,14.5C 25.5569,15.609 25.8902,16.609 26.5,17.5C 24.0246,18.6874 23.0246,20.6874 23.5,23.5C 21.4862,23.3915 19.8195,24.0582 18.5,25.5C 17.2092,24.2216 15.2092,23.5549 12.5,23.5C 13.1667,22.8333 13.8333,22.1667 14.5,21.5C 15.8734,21.6567 17.2068,21.49 18.5,21C 15.8333,20.3333 15.8333,19.6667 18.5,19C 16.0465,17.2599 14.5465,15.0933 14,12.5C 15.3086,14.8912 16.3086,14.8912 17,12.5C 17.6098,15.0216 18.9431,17.0216 21,18.5C 21.3333,17.5 21.6667,16.5 22,15.5C 23.0074,17.7416 23.8407,17.4082 24.5,14.5 Z"/></g>
<g><path style="opacity:1" fill="#3d7323" d="M 12.5,23.5 C 15.2092,23.5549 17.2092,24.2216 18.5,25.5C 17.381,27.4839 17.7144,29.3172 19.5,31C 18.9994,34.0485 17.6661,36.5485 15.5,38.5C 16.1599,36.1843 16.8266,33.851 17.5,31.5C 17.1667,30.8333 16.8333,30.1667 16.5,29.5C 13.1053,30.7269 10.9386,33.0602 10,36.5C 9.72158,35.5842 9.22158,34.9175 8.5,34.5C 8.9528,33.5416 9.61947,32.7083 10.5,32C 9.83333,31.6667 9.16667,31.3333 8.5,31C 11.6108,30.556 14.2775,29.2227 16.5,27C 13.2933,26.9127 10.2933,26.746 7.5,26.5C 8.40058,24.2729 10.0672,23.2729 12.5,23.5 Z"/></g>
<g><path style="opacity:0.941" fill="#5e9433" d="M 26.5,17.5 C 27.8799,17.9623 28.5466,18.9623 28.5,20.5C 28.2186,22.7784 26.8852,23.9451 24.5,24C 25.4996,26.0907 24.8329,27.7574 22.5,29C 23.6787,31.7957 23.6787,34.6291 22.5,37.5C 20.22,39.2227 17.5533,39.8893 14.5,39.5C 14.5,38.8333 14.8333,38.5 15.5,38.5C 17.6661,36.5485 18.9994,34.0485 19.5,31C 17.7144,29.3172 17.381,27.4839 18.5,25.5C 19.8195,24.0582 21.4862,23.3915 23.5,23.5C 23.0246,20.6874 24.0246,18.6874 26.5,17.5 Z"/></g>
<g><path style="opacity:0.965" fill="#52882d" d="M 38.5,23.5 C 42.1855,28.2038 44.1855,33.5372 44.5,39.5C 37.6263,40.3091 31.293,38.9758 25.5,35.5C 25.0632,32.1934 25.7298,29.1934 27.5,26.5C 28.1883,30.2091 29.6883,33.5424 32,36.5C 31.4679,33.8865 31.1346,31.2198 31,28.5C 32.6667,29.8333 34.3333,31.1667 36,32.5C 36.2163,34.3839 36.883,36.0506 38,37.5C 38.3333,36.8333 38.6667,36.1667 39,35.5C 39.8373,37.0074 41.0039,37.5074 42.5,37C 40.5,35 38.5,33 36.5,31C 37.5,30.6667 38.5,30.3333 39.5,30C 36.6924,29.9814 34.3591,28.9814 32.5,27C 40.0726,26.2056 39.7392,25.2056 31.5,24C 33.8098,23.5034 36.1432,23.3367 38.5,23.5 Z"/></g>
<g><path style="opacity:0.993" fill="#52882d" d="M 15.5,38.5 C 14.8333,38.5 14.5,38.8333 14.5,39.5C 10.5,39.5 6.5,39.5 2.5,39.5C 4.86928,38.31 6.86928,36.6433 8.5,34.5C 9.22158,34.9175 9.72158,35.5842 10,36.5C 10.9386,33.0602 13.1053,30.7269 16.5,29.5C 16.8333,30.1667 17.1667,30.8333 17.5,31.5C 16.8266,33.851 16.1599,36.1843 15.5,38.5 Z"/></g>
<g><path style="opacity:0.963" fill="#50862c" d="M 7.5,26.5 C 10.2933,26.746 13.2933,26.9127 16.5,27C 14.2775,29.2227 11.6108,30.556 8.5,31C 9.16667,31.3333 9.83333,31.6667 10.5,32C 9.61947,32.7083 8.9528,33.5416 8.5,34.5C 6.86928,36.6433 4.86928,38.31 2.5,39.5C 1.42654,38.7494 1.25988,37.7494 2,36.5C 3.08592,32.6536 4.91925,29.3203 7.5,26.5 Z"/></g>
</svg>
